<?xml version="1.0" standalone="no"?>
<!DOCTYPE svg PUBLIC "-//W3C//DTD SVG 20010904//EN"
 "http://www.w3.org/TR/2001/REC-SVG-20010904/DTD/svg10.dtd">
<svg version="1.0" xmlns="http://www.w3.org/2000/svg"
 width="225.000000pt" height="225.000000pt" viewBox="0 0 225.000000 225.000000"
 preserveAspectRatio="xMidYMid meet">

<g transform="translate(0.000000,225.000000) scale(0.100000,-0.100000)"
fill="#000000" stroke="none">
<path d="M650 1974 c-261 -151 -481 -282 -488 -291 -9 -13 -12 -141 -12 -559
0 -502 1 -543 18 -562 21 -25 936 -552 957 -552 20 0 946 536 962 558 10 12
13 140 13 558 0 502 -1 543 -17 562 -10 11 -211 131 -448 267 -236 137 -448
258 -470 271 l-40 23 -475 -275z m665 -286 c73 -24 129 -57 188 -109 52 -45
120 -134 115 -149 -2 -6 -55 -41 -118 -79 l-114 -69 -26 34 c-56 73 -120 104
-217 104 -83 0 -136 -22 -192 -80 -87 -90 -105 -233 -44 -342 58 -103 176
-162 282 -140 70 15 135 54 170 102 l28 39 109 -66 c60 -36 115 -70 121 -75
28 -23 -116 -178 -214 -231 -62 -33 -189 -67 -252 -67 -73 0 -181 27 -251 62
-84 42 -195 152 -238 235 -165 316 -27 701 297 824 112 42 241 45 356 7z"/>
</g>
</svg>
